<?xml version="1.0" encoding="UTF-8"?>
<svg version="1.1" xmlns="http://www.w3.org/2000/svg" width="512" height="512">
<path d="M0 0 C1.62139208 -0.0046106 3.24277999 -0.01096459 4.86415917 -0.01890898 C9.3138313 -0.03560381 13.76316017 -0.02735524 18.21283352 -0.0149641 C23.01388632 -0.0059165 27.81487996 -0.01988196 32.61592102 -0.03088379 C42.01915023 -0.04867708 51.42225177 -0.04482529 60.825486 -0.03323323 C68.46780559 -0.02420184 76.1100894 -0.02297363 83.7524128 -0.02732849 C84.83987155 -0.02794142 85.92733031 -0.02855436 87.04774236 -0.02918586 C89.25686678 -0.03046476 91.46599119 -0.03176161 93.67511559 -0.03307623 C114.39403294 -0.04448454 135.11287952 -0.03136465 155.83178527 -0.00987476 C173.60973984 0.00799392 191.38758992 0.00489448 209.1655426 -0.0135498 C229.8084741 -0.03495641 250.45134355 -0.04338322 271.09428459 -0.03110075 C273.29561459 -0.02982655 275.4969446 -0.02856907 277.69827461 -0.02732849 C279.3229317 -0.02640284 279.3229317 -0.02640284 280.98041014 -0.02545848 C288.61307867 -0.02200477 296.24570785 -0.02783446 303.87837029 -0.0372467 C313.18081731 -0.04846582 322.48312933 -0.04542852 331.7855609 -0.02412373 C336.53187573 -0.01361181 341.27796548 -0.00949393 346.02427864 -0.02272034 C350.36998536 -0.0346472 354.71525853 -0.02807685 359.06092597 -0.00681013 C360.63217676 -0.00234528 362.20346424 -0.00460774 363.7746914 -0.01431328 C380.61438029 -0.11034601 380.61438029 -0.11034601 387.13209534 6.32434082 C387.4943219 6.90055176 387.85654846 7.4767627 388.22975159 8.07043457 C388.61002502 8.64922363 388.99029846 9.2280127 389.38209534 9.82434082 C391.56922704 13.87006513 391.43540881 17.70248871 391.42647266 22.163661 C391.42882489 22.95488465 391.43117712 23.74610829 391.43360063 24.56130841 C391.44030205 27.23487085 391.43983207 29.90838481 391.43942261 32.58195496 C391.44272052 34.50924991 391.44644593 36.43654417 391.45056409 38.36383754 C391.46060043 43.67755216 391.4643035 48.99125549 391.4669534 54.30497825 C391.47085159 60.02906328 391.48043023 65.75313932 391.48916626 71.47721863 C391.50894403 85.30927342 391.51899838 99.14132896 391.52789405 112.97339436 C391.53227466 119.48300917 391.53764204 125.99262316 391.54288292 132.50223732 C391.55989623 154.13439 391.57441621 175.76654152 391.58163166 197.39869976 C391.58210642 198.79791613 391.58258231 200.1971325 391.58305932 201.59634887 C391.5832957 202.29023973 391.58353207 202.98413059 391.58377561 203.69904845 C391.58497682 207.21468953 391.58619227 210.73033061 391.5874176 214.24597168 C391.58765775 214.94366333 391.5878979 215.64135498 391.58814533 216.3601888 C391.59603897 238.98309333 391.61947188 261.60594545 391.65197355 284.22882709 C391.68626697 308.1424925 391.7059812 332.05612371 391.7092759 355.9698146 C391.71144336 369.00727571 391.72022649 382.04465978 391.74573708 395.08209801 C391.76740869 406.18339948 391.77551192 417.28460521 391.76577029 428.38592543 C391.76121539 434.05168273 391.76318099 439.71724234 391.78253174 445.38297272 C391.80009103 450.56888666 391.79922455 455.75445761 391.78363445 460.94037483 C391.78124736 462.81726982 391.78563862 464.69418812 391.7974631 466.57104739 C391.8125407 469.1221164 391.8029387 471.67196362 391.78723621 474.22300243 C391.79745842 474.95196245 391.80768063 475.68092246 391.8182126 476.43197218 C391.73614765 482.53930252 389.8230874 487.94444282 385.47584534 492.34777832 C384.8996344 492.71000488 384.32342346 493.07223145 383.72975159 493.44543457 C383.15096252 493.82570801 382.57217346 494.20598145 381.97584534 494.59777832 C378.20827352 496.63453988 375.02736332 496.63581225 370.82344532 496.64215565 C369.82908445 496.64568399 369.82908445 496.64568399 368.81463549 496.64928362 C366.57756908 496.6559781 364.3405607 496.65551526 362.10348511 496.65510559 C360.48967484 496.65840394 358.87586539 496.66212944 357.26205701 496.66624707 C352.81486178 496.67627852 348.36768006 496.6799857 343.92047513 496.68263638 C339.12891319 496.68653603 334.33736198 496.69611459 329.54580688 496.70484924 C317.96812924 496.72462305 306.3904507 496.73468094 294.81276038 496.74357703 C289.36310013 496.74795835 283.91344084 496.75332556 278.46378136 496.7585659 C260.35218794 496.77557895 242.24059513 496.79007375 224.12899494 496.79731464 C219.42763582 496.7992246 214.7262767 496.80114492 210.0249176 496.80310059 C208.8563916 496.80358433 207.6878656 496.80406807 206.48392972 496.80456647 C187.54903874 496.81286908 168.61421089 496.83820958 149.67934749 496.87068126 C130.24751937 496.90373403 110.81572335 496.92176178 91.38386697 496.92495888 C80.47027084 496.92712561 69.55676678 496.93589809 58.64319801 496.96142006 C49.34982296 496.98310268 40.05656233 496.99118948 30.76316486 496.98145328 C26.02091447 496.97690154 21.27890028 496.97884556 16.53668213 496.99821472 C12.19453915 497.01579676 7.85280555 497.01488912 3.51065852 496.99931743 C1.94062475 496.9969338 0.370563 497.00130396 -1.19942793 497.01314608 C-9.23736934 497.07001459 -15.82384379 497.09507829 -22.70774841 492.50793457 C-24.54759216 490.69152832 -24.54759216 490.69152832 -25.64524841 488.94543457 C-26.02552185 488.36664551 -26.40579529 487.78785645 -26.79759216 487.19152832 C-28.98604695 483.1433566 -28.85304283 479.30361433 -28.84755611 474.83938408 C-28.85050754 474.04677166 -28.85345896 473.25415923 -28.85649982 472.43752825 C-28.86521977 469.75923532 -28.86677409 467.08098543 -28.86837769 464.40267944 C-28.87310668 462.47197209 -28.87825732 460.54126574 -28.88379532 458.61056054 C-28.89772767 453.28737826 -28.90529242 447.96420283 -28.91176832 442.64100695 C-28.91813189 438.07955895 -28.92820302 433.51812226 -28.93832897 428.9566813 C-28.97167926 413.92653214 -28.99317878 398.8963761 -29.01152882 383.86620206 C-29.01632236 379.95378598 -29.02130585 376.04137019 -29.02633405 372.12895441 C-29.05730269 347.84525145 -29.08399887 323.56154713 -29.10075283 299.27783012 C-29.10469009 293.65108103 -29.10870193 288.024332 -29.11277771 282.39758301 C-29.11327938 281.69852728 -29.11378105 280.99947154 -29.11429792 280.2792323 C-29.13071558 257.61478715 -29.16917156 234.95044996 -29.22006481 212.28605792 C-29.273767 188.32709499 -29.30547084 164.36819957 -29.31294972 140.40917599 C-29.31761604 127.3476045 -29.33241021 114.28621169 -29.37269402 101.22469711 C-29.40695559 90.10216945 -29.42094895 78.97985271 -29.40826987 67.85727529 C-29.40243408 62.18117154 -29.4063723 56.50551408 -29.43643951 50.82947731 C-29.46374263 45.63288918 -29.46334773 40.4370657 -29.44092906 35.24046101 C-29.43769876 33.36084932 -29.44461729 31.48118698 -29.46272629 29.60165976 C-29.6201829 12.20417235 -29.6201829 12.20417235 -24.42156851 6.11218321 C-17.07622394 -0.76354374 -9.58152278 -0.05909426 0 0 Z " fill="#BCD6F3" transform="translate(74.70774841308594,7.4920654296875)"/>
<path d="M0 0 C1.62139208 -0.0046106 3.24277999 -0.01096459 4.86415917 -0.01890898 C9.3138313 -0.03560381 13.76316017 -0.02735524 18.21283352 -0.0149641 C23.01388632 -0.0059165 27.81487996 -0.01988196 32.61592102 -0.03088379 C42.01915023 -0.04867708 51.42225177 -0.04482529 60.825486 -0.03323323 C68.46780559 -0.02420184 76.1100894 -0.02297363 83.7524128 -0.02732849 C84.83987155 -0.02794142 85.92733031 -0.02855436 87.04774236 -0.02918586 C89.25686678 -0.03046476 91.46599119 -0.03176161 93.67511559 -0.03307623 C114.39403294 -0.04448454 135.11287952 -0.03136465 155.83178527 -0.00987476 C173.60973984 0.00799392 191.38758992 0.00489448 209.1655426 -0.0135498 C229.8084741 -0.03495641 250.45134355 -0.04338322 271.09428459 -0.03110075 C273.29561459 -0.02982655 275.4969446 -0.02856907 277.69827461 -0.02732849 C279.3229317 -0.02640284 279.3229317 -0.02640284 280.98041014 -0.02545848 C288.61307867 -0.02200477 296.24570785 -0.02783446 303.87837029 -0.0372467 C313.18081731 -0.04846582 322.48312933 -0.04542852 331.7855609 -0.02412373 C336.53187573 -0.01361181 341.27796548 -0.00949393 346.02427864 -0.02272034 C350.36998536 -0.0346472 354.71525853 -0.02807685 359.06092597 -0.00681013 C360.63217676 -0.00234528 362.20346424 -0.00460774 363.7746914 -0.01431328 C380.61438029 -0.11034601 380.61438029 -0.11034601 387.13209534 6.32434082 C387.4943219 6.90055176 387.85654846 7.4767627 388.22975159 8.07043457 C388.61002502 8.64922363 388.99029846 9.2280127 389.38209534 9.82434082 C404.39438392 37.59385317 391.29225159 72.94031469 391.29225159 104.50793457 C252.69225159 104.50793457 114.09225159 104.50793457 -28.70774841 104.50793457 C-28.70774841 13.50793457 -28.70774841 13.50793457 -22.70774841 4.50793457 C-16.25223927 -1.13873177 -8.13110775 -0.0501488 0 0 Z " fill="#4E5E77" transform="translate(74.70774841308594,7.4920654296875)"/>
<path d="M0 0 C1.10504883 0.29801514 1.10504883 0.29801514 2.23242188 0.60205078 C31.48853359 8.62524493 55.93959885 26.50299145 71.25 52.9375 C78.08060944 65.20412906 82.19887919 77.33914928 85 91 C85.26478149 92.18662231 85.26478149 92.18662231 85.53491211 93.3972168 C90.44824128 120.89380592 82.24551423 150.74872615 66.6875 173.47265625 C48.31481328 198.34226344 22.80757752 215.19590868 -7.859375 220.58544922 C-13.74790784 221.36271358 -19.63037324 221.38291704 -25.5625 221.375 C-26.2206369 221.37478851 -26.8787738 221.37457703 -27.55685425 221.37435913 C-43.54721769 221.3232144 -57.33478999 218.50303851 -72 212 C-72.98097656 211.57074219 -73.96195312 211.14148438 -74.97265625 210.69921875 C-101.39093701 198.34284238 -121.84779421 175.21532021 -132 148 C-141.20648087 119.66980373 -141.06357875 88.59065748 -127.8046875 61.49609375 C-127.20914063 60.34238281 -126.61359375 59.18867188 -126 58 C-125.46632812 56.95972656 -124.93265625 55.91945312 -124.3828125 54.84765625 C-109.90744586 28.49417776 -85.45087513 9.24134145 -56.6875 0.625 C-54.46464303 0.05799585 -52.23564981 -0.48574641 -50 -1 C-48.65035156 -1.33644531 -48.65035156 -1.33644531 -47.2734375 -1.6796875 C-32.03420536 -4.88563547 -14.9519125 -4.1446201 0 0 Z " fill="#FEFEFE" transform="translate(282,198)"/>
<path d="M0 0 C1.22589844 1.09248047 1.22589844 1.09248047 2.4765625 2.20703125 C3.31445312 2.92503906 4.15234375 3.64304688 5.015625 4.3828125 C15.4225661 13.45263888 24.10819211 23.53074957 31.4765625 35.20703125 C32.03923828 36.09769287 32.03923828 36.09769287 32.61328125 37.00634766 C46.65542168 59.64510563 53.88432612 85.16374618 53.8515625 111.76953125 C53.85067627 113.07639893 53.84979004 114.3832666 53.84887695 115.72973633 C53.72535399 125.92445623 52.55279338 135.4377452 49.97607422 145.29003906 C49.55225037 146.91656147 49.18225668 148.55696096 48.82421875 150.19921875 C40.89804237 184.28695767 16.86353666 215.17700407 -12.28613281 233.81640625 C-44.17769779 253.63901146 -83.55051996 262.46381219 -120.67407227 254.03710938 C-122.96898169 253.46380146 -125.24601482 252.84602035 -127.5234375 252.20703125 C-128.26384277 252.00867676 -129.00424805 251.81032227 -129.76708984 251.60595703 C-153.92470351 244.97724706 -174.6586323 231.43471786 -192.5234375 214.20703125 C-193.31363281 213.48 -194.10382813 212.75296875 -194.91796875 212.00390625 C-209.4246416 198.28481108 -219.34214426 179.63533451 -226.5234375 161.20703125 C-226.89082031 160.31757813 -227.25820312 159.428125 -227.63671875 158.51171875 C-240.10890895 125.47726903 -236.8215614 85.41916625 -222.70385742 53.47363281 C-216.91428015 40.98625346 -209.47533013 29.66533522 -200.5234375 19.20703125 C-199.82605469 18.3871875 -199.12867188 17.56734375 -198.41015625 16.72265625 C-174.32125018 -10.83197166 -139.50265567 -28.84713465 -102.89257812 -31.64794922 C-66.3336403 -33.88579022 -28.1885213 -24.31366415 0 0 Z M-162.5234375 26.20703125 C-163.51859375 27.026875 -164.51375 27.84671875 -165.5390625 28.69140625 C-186.45050791 46.51601966 -199.33610597 73.13067269 -202.5234375 100.20703125 C-204.65828703 130.20853082 -197.74794364 160.30089038 -177.90625 183.63671875 C-168.58056676 194.22690142 -158.77890401 203.15373786 -146.5234375 210.20703125 C-145.94239258 210.5417041 -145.36134766 210.87637695 -144.76269531 211.22119141 C-127.94059331 220.68540277 -110.14566385 224.60763527 -90.9609375 224.58203125 C-90.3028006 224.58181976 -89.6446637 224.58160828 -88.96658325 224.58139038 C-58.81467846 224.48495036 -31.79572807 212.48044882 -10.3359375 191.45703125 C10.97511209 169.93781512 21.60758847 141.89826889 21.9140625 111.83203125 C21.76330135 81.03964652 9.12161617 54.27888872 -11.8125 31.86328125 C-24.69458629 19.24106414 -40.38192049 10.54792263 -57.5234375 5.20703125 C-58.40515625 4.91183594 -59.286875 4.61664063 -60.1953125 4.3125 C-95.46315389 -7.08777357 -134.49822569 2.82688217 -162.5234375 26.20703125 Z " fill="#4E5E77" transform="translate(346.5234375,194.79296875)"/>
<path d="M0 0 C12.651206 4.3473452 25.36363963 7.92181971 38.50537109 10.51147461 C39.4214917 10.69266846 40.3376123 10.8738623 41.28149414 11.06054688 C45.15354165 11.60213504 48.9747833 11.69258406 52.87646484 11.71459961 C53.67584976 11.72029968 54.47523468 11.72599976 55.29884338 11.73187256 C56.98901056 11.7412871 58.67919579 11.74784238 60.36938477 11.75170898 C62.90399107 11.76132707 65.43775454 11.79234695 67.97216797 11.82397461 C77.02557744 11.88206827 85.40047879 11.3154279 94.22827148 9.2565918 C97.50537109 8.51147461 97.50537109 8.51147461 101.36254883 8.03979492 C102.39968018 7.86544922 103.43681152 7.69110352 104.50537109 7.51147461 C104.83537109 6.85147461 105.16537109 6.19147461 105.50537109 5.51147461 C101.29869152 32.76071245 84.78912128 57.84816624 62.87255859 74.33569336 C42.91964234 88.53383009 20.4038317 95.91912031 -4.05712891 95.88647461 C-4.71526581 95.88626312 -5.37340271 95.88605164 -6.05148315 95.88583374 C-22.04184659 95.83468901 -35.8294189 93.01451312 -50.49462891 86.51147461 C-51.47560547 86.0822168 -52.45658203 85.65295898 -53.46728516 85.21069336 C-79.86962589 72.86177246 -100.36796222 49.72653234 -110.49462891 22.51147461 C-115.49462891 7.03542493 -115.49462891 7.03542493 -115.49462891 0.51147461 C-107.73993377 -3.16979176 -100.04405969 -6.1027354 -91.74462891 -8.30102539 C-90.97787842 -8.50751709 -90.21112793 -8.71400879 -89.42114258 -8.92675781 C-58.95141169 -16.67517491 -28.86295675 -9.95574771 0 0 Z " fill="#6EE1FE" transform="translate(260.49462890625,323.488525390625)"/>
<path d="M0 0 C1.17554443 0.41330566 2.35108887 0.82661133 3.56225586 1.25244141 C6.77493792 2.49530555 9.79547798 3.93056839 12.84765625 5.5234375 C-5.55091851 27.79539642 -30.19692257 42.70142995 -59.15234375 46.5234375 C-64.00971137 46.84164521 -68.84792046 46.90493292 -73.71484375 46.8984375 C-74.37298065 46.89822601 -75.03111755 46.89801453 -75.709198 46.89779663 C-91.69956144 46.8466519 -105.48713374 44.02647601 -120.15234375 37.5234375 C-121.13332031 37.09417969 -122.11429688 36.66492188 -123.125 36.22265625 C-138.16774562 29.18685296 -151.58973627 18.34228316 -162.15234375 5.5234375 C-162.48234375 4.5334375 -162.81234375 3.5434375 -163.15234375 2.5234375 C-105.54422026 -22.85171585 -59.27386798 -20.84082912 0 0 Z " fill="#59CDF1" transform="translate(330.15234375,372.4765625)"/>
<path d="M0 0 C44.88 0 89.76 0 136 0 C136 10.56 136 21.12 136 32 C91.12 32 46.24 32 0 32 C0 21.44 0 10.88 0 0 Z " fill="#BDD7F4" transform="translate(78,44)"/>
<path d="M0 0 C6.95467005 3.91890138 11.30870984 9.27250947 13.6875 16.9375 C14.7272243 23.80481483 13.21054849 29.98374487 9.6875 35.9375 C5.21465068 41.00990146 -0.20496442 45.47205687 -7.0703125 46.25 C-15.45736313 46.58632283 -20.74452341 45.01893432 -27.0625 39.5625 C-32.91344409 32.73639857 -34.766752 27.74847488 -34.6484375 18.88671875 C-33.98038593 13.02184744 -31.60732873 8.17218201 -27.375 4.05078125 C-19.0461825 -2.46399456 -9.89414012 -4.54353262 0 0 Z " fill="#BBD5F2" transform="translate(420.3125,38.0625)"/>
<path d="M0 0 C6.95467005 3.91890138 11.30870984 9.27250947 13.6875 16.9375 C14.7272243 23.80481483 13.21054849 29.98374487 9.6875 35.9375 C5.21465068 41.00990146 -0.20496442 45.47205687 -7.0703125 46.25 C-15.45736313 46.58632283 -20.74452341 45.01893432 -27.0625 39.5625 C-32.91344409 32.73639857 -34.766752 27.74847488 -34.6484375 18.88671875 C-33.98038593 13.02184744 -31.60732873 8.17218201 -27.375 4.05078125 C-19.0461825 -2.46399456 -9.89414012 -4.54353262 0 0 Z " fill="#BBD5F2" transform="translate(340.3125,38.0625)"/>
<path d="M0 0 C1.27939453 0.00580078 2.55878906 0.01160156 3.87695312 0.01757812 C14.55242291 0.15767615 14.55242291 0.15767615 17.9375 2.4375 C20.28299674 5.95574511 20.51741403 7.29525694 19.9375 11.4375 C17.34161413 14.72507771 15.8372779 16.25882548 11.67944336 17.08447266 C9.87165405 17.09293213 9.87165405 17.09293213 8.02734375 17.1015625 C6.70798828 17.10800781 5.38863281 17.11445312 4.02929688 17.12109375 C3.00630493 17.1053833 3.00630493 17.1053833 1.96264648 17.08935547 C-0.12374732 17.06251611 -2.20478575 17.08915289 -4.29101562 17.12109375 C-5.60908203 17.11464844 -6.92714844 17.10820313 -8.28515625 17.1015625 C-9.48922119 17.09592285 -10.69328613 17.0902832 -11.93383789 17.08447266 C-15.0625 16.4375 -15.0625 16.4375 -17.45092773 14.08349609 C-19.44765347 10.80512714 -19.77008401 9.21128138 -19.0625 5.4375 C-14.65501021 -1.64151072 -7.57941302 -0.19532595 0 0 Z " fill="#BAD4F1" transform="translate(261.0625,51.5625)"/>
</svg>
